<svg height="512pt" viewBox="0 -5 512.00079 512" width="512pt" xmlns="http://www.w3.org/2000/svg"><path d="m225.03125 261.105469-26.757812-36.054688c-2.96875-4.003906-4.046876-9.101562-2.945313-13.964843l45.949219-202.773438c1.105468-4.859375 5.425781-8.3125 10.410156-8.3125h16.242188c5.746093 0 10.457031 4.546875 10.667968 10.285156l9.933594 272.5625h-52.109375zm0 0" fill="#cdcdcd"/><path d="m278.597656 10.285156c-.210937-5.742187-4.921875-10.285156-10.664062-10.285156h-16.246094c-.941406 0-1.859375.125-2.734375.355469 4.453125 1.164062 7.792969 5.121093 7.96875 9.929687l9.9375 272.5625h21.671875zm0 0" fill="#bebebe"/><path d="m242.890625 236.367188c-4.144531 0-7.5-3.359376-7.5-7.5v-77.035157c0-4.140625 3.355469-7.5 7.5-7.5 4.140625 0 7.5 3.359375 7.5 7.5v77.035157c0 4.140624-3.359375 7.5-7.5 7.5zm0 0" fill="#5a5a5a"/><path d="m249.007812 341.167969-17.847656 41.203125c-1.980468 4.574218-5.859375 8.054687-10.625 9.53125l-198.578125 61.59375c-4.761719 1.476562-9.910156-.542969-12.402343-4.859375l-8.125-14.066407c-2.871094-4.972656-1.289063-11.328124 3.574218-14.378906l231.078125-144.886718 26.054688 45.128906zm0 0" fill="#cdcdcd"/><path d="m236.082031 275.304688-4.777343 2.996093 14.859374 25.738281-13.128906 20.734376-16.554687 38.214843c-2.800781 6.472657-8.289063 11.394531-15.019531 13.484375l-195.476563 60.625c-.933594.289063-1.878906.441406-2.820313.472656l6.390626 11.066407c2.492187 4.316406 7.640624 6.332031 12.402343 4.855469l198.582031-61.589844c4.761719-1.476563 8.640626-4.957032 10.621094-9.53125l17.847656-41.203125 13.128907-20.734375zm0 0" fill="#bebebe"/><path d="m145.449219 387.839844c-2.59375 0-5.113281-1.34375-6.503907-3.75-2.070312-3.585938-.839843-8.171875 2.746094-10.246094l66.714844-38.515625c3.585938-2.070313 8.171875-.84375 10.242188 2.746094 2.074218 3.585937.84375 8.171875-2.742188 10.246093l-66.714844 38.515626c-1.179687.679687-2.46875 1.003906-3.742187 1.003906zm0 0" fill="#5a5a5a"/><path d="m297.773438 288.890625 44.605468-5.144531c4.949219-.570313 9.90625 1.046875 13.566406 4.433594l152.628907 141.179687c3.660156 3.382813 4.488281 8.851563 1.996093 13.167969l-8.121093 14.070312c-2.871094 4.972656-9.164063 6.78125-14.238281 4.09375l-241.015626-127.675781 26.054688-45.128906zm0 0" fill="#cdcdcd"/><path d="m508.574219 429.359375-152.628907-141.179687c-3.660156-3.386719-8.617187-5.003907-13.570312-4.433594l-44.601562 5.144531-24.523438-1.003906-10.925781 18.925781 22.878906.9375 39.851563-4.597656c7.96875-.921875 15.9375 1.683594 21.828124 7.128906l149.121094 137.933594c3.425782 3.171875 4.371094 8.171875 2.425782 12.339844 1.617187-.910157 3.023437-2.238282 4.015624-3.957032l8.121094-14.066406c2.496094-4.320312 1.667969-9.785156-1.992187-13.171875zm0 0" fill="#bebebe"/><path d="m383.472656 366.496094c-1.273437 0-2.5625-.324219-3.742187-1.007813l-66.714844-38.515625c-3.585937-2.070312-4.816406-6.660156-2.746094-10.246094 2.070313-3.585937 6.65625-4.816406 10.246094-2.746093l66.714844 38.519531c3.585937 2.070312 4.816406 6.65625 2.742187 10.246094-1.386718 2.40625-3.910156 3.75-6.5 3.75zm0 0" fill="#5a5a5a"/><g fill="#40c1fa"><path d="m57.234375 333.613281c-3.648437 0-6.847656-2.664062-7.40625-6.378906-1.539063-10.167969-2.316406-20.554687-2.316406-30.871094 0-39.054687 11.027343-77.039062 31.890625-109.84375 20.300781-31.921875 48.945312-57.59375 82.839844-74.246093 3.722656-1.824219 8.214843-.292969 10.039062 3.425781 1.828125 3.71875.292969 8.210937-3.425781 10.039062-31.417969 15.433594-57.976563 39.234375-76.796875 68.832031-19.328125 30.394532-29.546875 65.59375-29.546875 101.789063 0 9.570313.722656 19.203125 2.148437 28.632813.617188 4.097656-2.199218 7.917968-6.296875 8.535156-.378906.058594-.757812.085937-1.128906.085937zm0 0"/><path d="m103.515625 314.003906c-3.914063 0-7.210937-3.039062-7.476563-7-.242187-3.628906-.367187-7.210937-.367187-10.640625 0-53.65625 26.988281-103.023437 72.195313-132.054687 3.484374-2.238282 8.125-1.230469 10.363281 2.257812 2.238281 3.484375 1.226562 8.125-2.257813 10.363282-40.890625 26.257812-65.300781 70.90625-65.300781 119.433593 0 3.097657.113281 6.339844.332031 9.636719.277344 4.132812-2.847656 7.707031-6.980468 7.984375-.167969.011719-.339844.019531-.507813.019531zm0 0"/><path d="m449.539062 317.890625c-.175781 0-.355468-.003906-.535156-.019531-4.132812-.289063-7.242187-3.875-6.953125-8.007813 2.460938-34.917969-4.757812-69.84375-20.871093-100.992187-16.550782-31.996094-41.839844-58.527344-73.125-76.730469-8.277344-4.8125-16.96875-9.035156-25.828126-12.542969-3.851562-1.523437-5.738281-5.882812-4.214843-9.734375 1.527343-3.851562 5.882812-5.738281 9.734375-4.210937 9.558594 3.78125 18.929687 8.332031 27.851562 13.523437 33.753906 19.640625 61.039063 48.273438 78.902344 82.800781 17.382812 33.601563 25.167969 71.273438 22.515625 108.941407-.28125 3.953125-3.574219 6.972656-7.476563 6.972656zm0 0"/><path d="m401.714844 297.441406c-3.992188 0-7.3125-3.144531-7.488282-7.171875-2.132812-48.546875-28.449218-92.097656-70.394531-116.5-2.675781-1.558593-5.53125-3.089843-8.496093-4.5625-3.714844-1.835937-5.230469-6.335937-3.390626-10.046875 1.835938-3.710937 6.335938-5.230468 10.046876-3.390625 3.265624 1.617188 6.421874 3.3125 9.382812 5.035157 46.378906 26.984374 75.476562 75.136718 77.835938 128.808593.183593 4.136719-3.023438 7.640625-7.164063 7.820313-.109375.003906-.222656.007812-.332031.007812zm0 0"/><path d="m252.703125 501.378906c-1.265625 0-2.523437-.011718-3.789063-.035156-37.824218-.703125-74.660156-11.78125-106.527343-32.039062-3.496094-2.222657-4.527344-6.859376-2.308594-10.355469 2.222656-3.496094 6.859375-4.527344 10.355469-2.304688 29.542968 18.78125 63.691406 29.050781 98.757812 29.703125 36.003906.671875 71.386719-8.949218 102.285156-27.804687 8.171876-4.988281 16.015626-10.621094 23.320313-16.746094 3.171875-2.660156 7.902344-2.246094 10.566406.925781 2.660157 3.175782 2.246094 7.90625-.929687 10.566406-7.875 6.605469-16.335938 12.683594-25.144532 18.058594-32.253906 19.679688-69.03125 30.03125-106.585937 30.03125zm0 0"/><path d="m252.574219 453.277344c-23.382813 0-46.847657-5.265625-68.703125-15.878906-3.726563-1.808594-5.277344-6.296876-3.46875-10.019532 1.808594-3.726562 6.296875-5.28125 10.019531-3.472656 43.714844 21.222656 94.542969 18.804688 135.964844-6.472656 2.644531-1.613282 5.355469-3.398438 8.054687-5.304688 3.386719-2.390625 8.0625-1.582031 10.453125 1.800782 2.390625 3.382812 1.582031 8.0625-1.800781 10.453124-2.972656 2.097657-5.960938 4.066407-8.894531 5.855469-25.085938 15.308594-53.296875 23.039063-81.625 23.039063zm0 0"/><path d="m297.433594 296.363281c0 24.8125-20.113282 44.925781-44.925782 44.925781s-44.929687-20.113281-44.929687-44.925781 20.117187-44.929687 44.929687-44.929687 44.925782 20.117187 44.925782 44.929687zm0 0"/></g><path d="m252.507812 251.433594c-4.074218 0-8.011718.550781-11.761718 1.566406 19.105468 5.171875 33.164062 22.621094 33.164062 43.363281 0 20.738281-14.058594 38.1875-33.164062 43.359375 3.75 1.015625 7.6875 1.566406 11.761718 1.566406 24.8125 0 44.925782-20.117187 44.925782-44.925781 0-24.8125-20.113282-44.929687-44.925782-44.929687zm0 0" fill="#07a9f0"/></svg>