<svg height="512pt" viewBox="-20 0 512 512" width="512pt" xmlns="http://www.w3.org/2000/svg"><path d="m392.171875 156.640625c0 86.507813-70.132813 156.640625-156.640625 156.640625-86.511719 0-156.640625-70.132812-156.640625-156.640625 0-86.511719 70.128906-156.640625 156.640625-156.640625 86.507812 0 156.640625 70.128906 156.640625 156.640625zm0 0" fill="#ffd508"/><path d="m235.53125 0c-6.175781 0-12.261719.367188-18.25 1.0625 77.910156 9.042969 138.394531 75.242188 138.394531 155.578125s-60.484375 146.535156-138.394531 155.574219c5.988281.695312 12.074219 1.066406 18.25 1.066406 86.507812 0 156.640625-70.132812 156.640625-156.640625 0-86.511719-70.132813-156.640625-156.640625-156.640625zm0 0" fill="#eec707"/><path d="m397.078125 374.96875h-323.097656c-8.929688 0-15.605469-8.210938-13.777344-16.953125l41.351563-197.6875c1.367187-6.523437 7.113281-11.191406 13.777343-11.191406h240.398438c6.660156 0 12.410156 4.667969 13.773437 11.191406l41.351563 197.6875c1.828125 8.742187-4.84375 16.953125-13.777344 16.953125zm0 0" fill="#40c1fa"/><path d="m410.855469 358.015625-41.351563-197.6875c-1.363281-6.523437-7.113281-11.191406-13.773437-11.191406h-28.25c6.664062 0 12.410156 4.667969 13.777343 11.191406l41.347657 197.6875c1.832031 8.742187-4.84375 16.953125-13.773438 16.953125h28.25c8.929688 0 15.601563-8.210938 13.773438-16.953125zm0 0" fill="#07a9f0"/><path d="m265.65625 401.867188h-60.253906c-3.515625 0-6.367188-2.851563-6.367188-6.371094v-20.527344h72.992188v20.527344c0 3.519531-2.851563 6.371094-6.371094 6.371094zm0 0" fill="#5a5a5a"/><path d="m254.027344 374.96875v26.898438h11.628906c3.519531 0 6.371094-2.851563 6.371094-6.371094v-20.527344zm0 0" fill="#464646"/><path d="m217.527344 401.867188h36.003906v82.035156h-36.003906zm0 0" fill="#cdcdcd"/><path d="m236.511719 401.867188h17.019531v82.035156h-17.019531zm0 0" fill="#bebebe"/><path d="m280.394531 512h-89.726562c-3.605469 0-6.527344-2.921875-6.527344-6.527344v-15.046875c0-3.601562 2.921875-6.523437 6.527344-6.523437h89.726562c3.601563 0 6.523438 2.921875 6.523438 6.523437v15.046875c0 3.605469-2.921875 6.527344-6.523438 6.527344zm0 0" fill="#cdcdcd"/><path d="m263.027344 483.902344v28.097656h17.367187c3.601563 0 6.523438-2.921875 6.523438-6.527344v-15.046875c0-3.601562-2.921875-6.523437-6.523438-6.523437zm0 0" fill="#bebebe"/><path d="m398.65625 292.191406h-95.574219l-7.125-60.277344h86.953125c4.140625 0 7.5-3.359374 7.5-7.5 0-4.144531-3.359375-7.5-7.5-7.5h-88.726562l-8.117188-68.660156c-.488281-4.113281-4.222656-7.050781-8.332031-6.566406-4.113281.484375-7.050781 4.214844-6.566406 8.328125l7.910156 66.898437h-87.097656l7.910156-66.898437c.488281-4.113281-2.453125-7.839844-6.566406-8.328125-4.105469-.484375-7.84375 2.453125-8.332031 6.566406l-8.113282 68.660156h-88.730468c-4.140626 0-7.5 3.355469-7.5 7.5 0 4.140626 3.359374 7.5 7.5 7.5h86.957031l-7.128907 60.277344h-95.335937c-4.144531 0-7.5 3.359375-7.5 7.5s3.355469 7.5 7.5 7.5h93.5625l-7.90625 66.898438c-.488281 4.109375 2.453125 7.839844 6.566406 8.328125.296875.035156.597657.050781.890625.050781 3.75 0 6.988282-2.804688 7.4375-6.621094l8.117188-68.65625h108.441406l8.117188 68.65625c.453124 3.816406 3.691406 6.621094 7.441406 6.621094.292968 0 .589844-.015625.886718-.050781 4.117188-.488281 7.054688-4.214844 6.570313-8.328125l-7.910156-66.898438h93.800781c4.140625 0 7.5-3.359375 7.5-7.5s-3.359375-7.5-7.5-7.5zm-215.574219 0 7.128907-60.277344h90.640624l7.125 60.277344zm0 0" fill="#057aad"/><path d="m225.609375 288.472656c-1.921875 0-3.839844-.730468-5.304687-2.195312-2.929688-2.929688-2.929688-7.679688 0-10.605469l7.042968-7.042969c-2.992187-.039062-5.675781-1.859375-6.824218-4.628906-1.164063-2.800781-.519532-6.027344 1.625-8.171875l18-18c2.929687-2.929687 7.675781-2.929687 10.605468 0 2.929688 2.929687 2.929688 7.679687 0 10.605469l-5.199218 5.199218c2.992187.042969 5.675781 1.859376 6.824218 4.628907 1.160156 2.800781.519532 6.027343-1.625 8.171875l-19.84375 19.84375c-1.464844 1.464844-3.382812 2.195312-5.300781 2.195312zm0 0" fill="#ffd508"/><g fill="#f76937"><path d="m66.265625 46.035156c-1.570313 0-3.148437-.488281-4.5-1.503906l-34.308594-25.769531c-3.3125-2.488281-3.980469-7.1875-1.492187-10.5 2.484375-3.3125 7.1875-3.980469 10.5-1.492188l34.308594 25.769531c3.3125 2.488282 3.980468 7.191407 1.492187 10.5-1.472656 1.964844-3.722656 2.996094-6 2.996094zm0 0"/><path d="m49.113281 103.589844h-41.613281c-4.140625 0-7.5-3.359375-7.5-7.5 0-4.144532 3.359375-7.5 7.5-7.5h41.617188c4.140624 0 7.5 3.355468 7.5 7.5 0 4.140625-3.359376 7.5-7.503907 7.5zm0 0"/><path d="m404.796875 46.035156c-2.28125 0-4.53125-1.03125-6.003906-2.996094-2.488281-3.308593-1.820313-8.011718 1.492187-10.5l34.3125-25.769531c3.308594-2.488281 8.011719-1.820312 10.5 1.492188 2.488282 3.3125 1.820313 8.011719-1.492187 10.5l-34.3125 25.769531c-1.347657 1.015625-2.929688 1.503906-4.496094 1.503906zm0 0"/><path d="m463.558594 103.589844h-41.613282c-4.144531 0-7.5-3.359375-7.5-7.5 0-4.144532 3.355469-7.5 7.5-7.5h41.613282c4.144531 0 7.5 3.355468 7.5 7.5 0 4.140625-3.355469 7.5-7.5 7.5zm0 0"/></g></svg>