<svg height="512" viewBox="0 0 64 64" width="512" xmlns="http://www.w3.org/2000/svg"><g id="Flat"><g id="Color"><g><path d="m35 41h-8l2-28h4z" fill="#f9e109"/><path d="m34.714 37a3.714 3.714 0 0 1 -3.714-3.714v-20.286h-2l-2 28h8z" fill="#fcbc04"/><path d="m28.143 25h5.714l-.286-4h-5.142z" fill="#aae1f9"/><path d="m44 3a3.99 3.99 0 0 0 -3.29 1.732 2.985 2.985 0 0 0 -5.594.488 3 3 0 0 0 -3.884 3.934 2 2 0 1 0 2.768 1.846 2.976 2.976 0 0 0 1.154-.232 2 2 0 1 0 3.523-1.852 2.978 2.978 0 0 0 1.486-.846 3.993 3.993 0 1 0 3.837-5.07z" fill="#ccc"/><path d="m47.7 5.5a3.984 3.984 0 0 1 -7.54-.43l-.035.93a3.127 3.127 0 0 1 -3.125 3 1.979 1.979 0 0 1 -1.627-.867 3.987 3.987 0 0 1 -3.373 1.867 1.964 1.964 0 0 1 -.379-.038 3.988 3.988 0 0 1 -1.113-.256 1.957 1.957 0 0 0 -.459 1.74 2 2 0 0 0 3.951-.446 2.976 2.976 0 0 0 1.154-.232 2 2 0 1 0 3.523-1.852 2.978 2.978 0 0 0 1.486-.846 3.99 3.99 0 1 0 7.537-2.57z" fill="#93999a"/><path d="m31 21h-2.571l-.286 4h2.857z" fill="#57b7eb"/><path d="m44.91 22.414-1.329 2.924a15.627 15.627 0 0 1 -13.381 9.162h-.057a1 1 0 0 1 -.056-2 13.632 13.632 0 0 0 11.674-7.99l1.329-2.924z" fill="#d0d8da"/><path d="m46.8 16.6-4.992 6.657a15.667 15.667 0 0 1 -11.4 6.226l-.2.015h-.073a1 1 0 0 1 -.072-2l.2-.014a13.663 13.663 0 0 0 9.941-5.431l4.996-6.653z" fill="#d0d8da"/><path d="m52 30a1 1 0 0 1 -.658-.248l-8-7a1 1 0 0 1 .658-1.752h16a1 1 0 0 1 .658 1.752l-8 7a1 1 0 0 1 -.658.248zm-5.339-7 5.339 4.671 5.339-4.671z" fill="#93999a"/><path d="m58 42a1 1 0 0 1 -.707-.293l-5.293-5.293-5.293 5.293a1 1 0 0 1 -1.694-.863l3-19a1 1 0 0 1 .987-.844h6a1 1 0 0 1 .987.844l3 19a1 1 0 0 1 -.987 1.156zm-6-8a1 1 0 0 1 .707.293l3.825 3.825-2.386-15.118h-4.292l-2.386 15.118 3.825-3.825a1 1 0 0 1 .707-.293z" fill="#93999a"/><path d="m52 36a1 1 0 0 1 -.6-.2l-4-3a1 1 0 0 1 0-1.6l4-3a1 1 0 0 1 1.2 0l4 3a1 1 0 0 1 0 1.6l-4 3a1 1 0 0 1 -.6.2zm-2.333-4 2.333 1.75 2.333-1.75-2.333-1.75z" fill="#93999a"/><path d="m54 23h-4a1 1 0 0 1 -.948-.684l-2-6a1 1 0 0 1 .948-1.316h8a1 1 0 0 1 .948 1.316l-2 6a1 1 0 0 1 -.948.684zm-3.279-2h2.558l1.333-4h-5.224z" fill="#93999a"/><path d="m58 17h-12a1 1 0 0 1 0-2h12a1 1 0 0 1 0 2z" fill="#93999a"/><path d="m31 25h-10l-6 3v13h16z" fill="#c4f236"/><path d="m26 38a8 8 0 0 1 -8-8v-3.5l-3 1.5v13h16v-3z" fill="#a1d51c"/><path d="m23 38a1 1 0 0 1 -.929-1.372l1.029-2.557-1.648.824a1 1 0 0 1 -1.376-1.267l2-5a1 1 0 0 1 1.858.744l-1.024 2.557 1.648-.824a1 1 0 0 1 1.376 1.267l-2 5a1 1 0 0 1 -.934.628z" fill="#f9e109"/><path d="m22.629 37.929a.99.99 0 0 0 1.106-.259 7.962 7.962 0 0 1 -1.719-.739.99.99 0 0 0 .613.998z" fill="#fcbc04"/><path d="m3 41h58v20h-58z" fill="#f9e109"/><path d="m61 61h-58v-14l5.613-1.02a25.385 25.385 0 0 1 10.7.348l1.149.287a25.374 25.374 0 0 0 11.138.265 25.392 25.392 0 0 1 8.84-.2l5.59.86a25.371 25.371 0 0 0 5.97.21l9-.75z" fill="#fcbc04"/><path d="m61 61h-58v-8l3.411-.853a22.755 22.755 0 0 1 9.255-.369l2.975.5a22.745 22.745 0 0 0 8.673-.233 22.765 22.765 0 0 1 9.393-.1l1.206.242a22.755 22.755 0 0 0 8.2.132l2.831-.472a22.748 22.748 0 0 1 9.987.565l2.069.588z" fill="#e59730"/><path d="m11 32a4 4 0 0 0 -4 4v21h4v-21h4v-4z" fill="#93999a"/><path d="m7 36v2a2 2 0 0 0 2-2 2 2 0 0 1 2-2 2 2 0 0 0 2-2h-2a4 4 0 0 0 -4 4z" fill="#d0d8da"/><g fill="#656b76"><path d="m7 41h4v16h-4z"/><circle cx="53" cy="56" r="1"/><circle cx="33" cy="56" r="1"/><circle cx="43" cy="57" r="1"/><circle cx="21" cy="57" r="1"/><circle cx="58" cy="57" r="1"/></g><circle cx="50" cy="44" fill="#d0d8da" r="1"/><circle cx="26" cy="44" fill="#d0d8da" r="1"/><circle cx="16" cy="57" fill="#656b76" r="1"/><circle cx="16" cy="49" fill="#93999a" r="1"/><circle cx="60" cy="49" fill="#93999a" r="1"/><circle cx="40" cy="49" fill="#93999a" r="1"/></g></g></g></svg>