<svg height="480pt" viewBox="0 0 480.01211 480" width="480pt" xmlns="http://www.w3.org/2000/svg"><path d="m472 136.007812v336h-464v-112h144v-112h144v-112zm0 0" fill="#78b9eb"/><path d="m472 8.007812-16 31.277344 16 32.722656h-88v-64zm0 0" fill="#ffda44"/><path d="m112 152.007812c-26.480469 0-48 7.199219-48 16 0 8.796876 21.519531 16 48 16s48-7.203124 48-16c0-8.800781-21.519531-16-48-16zm0-32c14.683594-.003906 27.480469-9.996093 31.039062-24.242187l.960938.242187h8c8.808594-.066406 15.933594-7.191406 16-16-.027344-8.828124-7.175781-15.976562-16-16h-8v-8h-64v8h-8c-8.824219.023438-15.972656 7.171876-16 16 .066406 8.808594 7.191406 15.933594 16 16h8l.960938-.242187c3.558593 14.246094 16.355468 24.238281 31.039062 24.242187zm0-112c57.4375 0 104 46.5625 104 104s-46.5625 104-104 104-104-46.5625-104-104 46.5625-104 104-104zm0 0" fill="#898890"/><path d="m160 168.007812c0-8.839843-21.492188-16-48-16s-48 7.160157-48 16c0 8.835938 21.492188 16 48 16s48-7.164062 48-16zm0 0" fill="#ffda44"/><path d="m144 64.007812v24c.007812 2.613282-.316406 5.222657-.960938 7.757813-3.566406 14.238281-16.363281 24.222656-31.039062 24.222656s-27.472656-9.984375-31.039062-24.222656c-.644532-2.535156-.96875-5.144531-.960938-7.757813v-32h64zm0 0" fill="#ffda44"/><path d="m472 128.007812h-80v-48h80c2.761719.003907 5.332031-1.417968 6.792969-3.757812 1.464843-2.34375 1.621093-5.273438.40625-7.757812l-14.238281-29.117188 14.160156-27.730469c1.265625-2.476562 1.152344-5.4375-.300782-7.8125-1.453124-2.375-4.035156-3.8242185-6.820312-3.8242185h-88c-4.417969 0-8 3.5781255-8 7.9999995v120h-80c-4.417969 0-8 3.578126-8 8v104h-136c-4.417969 0-8 3.578126-8 8v104h-136c-4.417969 0-8 3.578126-8 8v112c0 4.417969 3.582031 8 8 8h464c4.417969 0 8-3.582031 8-8v-336c0-4.421874-3.582031-8-8-8zm-80-112h66.929688l-10.050782 19.652344c-1.152344 2.242188-1.175781 4.894532-.0625 7.152344l10.382813 21.195312h-67.199219zm72 448h-448v-96h136c4.417969 0 8-3.582031 8-8v-104h136c4.417969 0 8-3.582031 8-8v-104h160zm0 0"/><path d="m112 224.007812c61.855469 0 112-50.144531 112-112 0-61.859374-50.144531-111.9999995-112-111.9999995s-112 50.1406255-112 111.9999995c.0664062 61.828126 50.171875 111.933594 112 112zm0-208c53.019531 0 96 42.980469 96 96 0 53.019532-42.980469 96-96 96s-96-42.980468-96-96c.058594-52.996093 43.003906-95.945312 96-96zm0 0"/><path d="m72 104.007812h3.390625c5.214844 11.910157 15.875 20.558594 28.609375 23.199219v17.039063c-25.007812 1.296875-48 8.800781-48 23.769531 0 16.574219 28.128906 24 56 24s56-7.425781 56-24c0-14.984375-22.992188-22.472656-48-23.769531v-17.039063c12.734375-2.640625 23.394531-11.289062 28.609375-23.199219h3.390625c13.253906 0 24-10.746093 24-24 0-13.257812-10.746094-24-24-24 0-4.421874-3.582031-8-8-8h-64c-4.417969 0-8 3.578126-8 8-13.253906 0-24 10.742188-24 24 0 13.253907 10.746094 24 24 24zm88-24c0 4.417969-3.582031 8-8 8v-16c4.417969 0 8 3.578126 8 8zm-48 96c-22.113281 0-35.511719-5.042968-39.273438-8 3.761719-2.960937 17.160157-8 39.273438-8s35.511719 5.039063 39.273438 8c-3.761719 2.957032-17.160157 8-39.273438 8zm-24-112h48v24c0 13.253907-10.746094 24-24 24s-24-10.746093-24-24zm-16 8v16c-4.417969 0-8-3.582031-8-8 0-4.421874 3.582031-8 8-8zm0 0"/></svg>